# Blender 4.1.1
# www.blender.org
mtllib axio.mtl
o z_axio
v 0.000000 3.698691 -0.150000
v 0.029264 3.698691 -0.147118
v 0.057403 3.698691 -0.138582
v 0.083336 3.698691 -0.124720
v 0.106066 3.698691 -0.106066
v 0.124720 3.698691 -0.083336
v 0.138582 3.698691 -0.057403
v 0.147118 3.698691 -0.029264
v 0.150000 3.698691 0.000000
v 0.147118 3.698691 0.029264
v 0.138582 3.698691 0.057403
v 0.124720 3.698691 0.083336
v 0.106066 3.698691 0.106066
v 0.083336 3.698691 0.124720
v 0.057403 3.698691 0.138582
v 0.029264 3.698691 0.147118
v 0.000000 3.698691 0.150000
v -0.029264 3.698691 0.147118
v -0.057403 3.698691 0.138582
v -0.083336 3.698691 0.124720
v -0.106066 3.698691 0.106066
v -0.124720 3.698691 0.083336
v -0.138582 3.698691 0.057403
v -0.147118 3.698691 0.029264
v -0.150000 3.698691 0.000000
v -0.147118 3.698691 -0.029264
v -0.138582 3.698691 -0.057403
v -0.124720 3.698691 -0.083336
v -0.106066 3.698691 -0.106066
v -0.083336 3.698691 -0.124720
v -0.057403 3.698691 -0.138582
v -0.029264 3.698691 -0.147118
v 0.000000 3.998691 0.000000
v 0.000000 -3.799399 -0.050000
v 0.000000 3.799400 -0.050000
v 0.009755 -3.799399 -0.049039
v 0.009755 3.799400 -0.049039
v 0.019134 -3.799399 -0.046194
v 0.019134 3.799400 -0.046194
v 0.027779 -3.799399 -0.041573
v 0.027779 3.799400 -0.041573
v 0.035355 -3.799399 -0.035355
v 0.035355 3.799400 -0.035355
v 0.041573 -3.799399 -0.027779
v 0.041573 3.799400 -0.027779
v 0.046194 -3.799399 -0.019134
v 0.046194 3.799400 -0.019134
v 0.049039 -3.799399 -0.009755
v 0.049039 3.799400 -0.009755
v 0.050000 -3.799399 0.000000
v 0.050000 3.799400 0.000000
v 0.049039 -3.799399 0.009755
v 0.049039 3.799400 0.009755
v 0.046194 -3.799399 0.019134
v 0.046194 3.799400 0.019134
v 0.041573 -3.799399 0.027779
v 0.041573 3.799400 0.027779
v 0.035355 -3.799399 0.035355
v 0.035355 3.799400 0.035355
v 0.027779 -3.799399 0.041573
v 0.027779 3.799400 0.041573
v 0.019134 -3.799399 0.046194
v 0.019134 3.799400 0.046194
v 0.009755 -3.799399 0.049039
v 0.009755 3.799400 0.049039
v 0.000000 -3.799399 0.050000
v 0.000000 3.799400 0.050000
v -0.009755 -3.799399 0.049039
v -0.009755 3.799400 0.049039
v -0.019134 -3.799399 0.046194
v -0.019134 3.799400 0.046194
v -0.027779 -3.799399 0.041573
v -0.027779 3.799400 0.041573
v -0.035355 -3.799399 0.035355
v -0.035355 3.799400 0.035355
v -0.041573 -3.799399 0.027779
v -0.041573 3.799400 0.027779
v -0.046194 -3.799399 0.019134
v -0.046194 3.799400 0.019134
v -0.049039 -3.799399 0.009755
v -0.049039 3.799400 0.009755
v -0.050000 -3.799399 0.000000
v -0.050000 3.799400 0.000000
v -0.049039 -3.799399 -0.009755
v -0.049039 3.799400 -0.009755
v -0.046194 -3.799399 -0.019134
v -0.046194 3.799400 -0.019134
v -0.041573 -3.799399 -0.027779
v -0.041573 3.799400 -0.027779
v -0.035355 -3.799399 -0.035355
v -0.035355 3.799400 -0.035355
v -0.027779 -3.799399 -0.041573
v -0.027779 3.799400 -0.041573
v -0.019134 -3.799399 -0.046194
v -0.019134 3.799400 -0.046194
v -0.009755 -3.799399 -0.049039
v -0.009755 3.799400 -0.049039
vn 0.0878 0.4455 -0.8910
vn 0.2599 0.4455 -0.8567
vn 0.4220 0.4455 -0.7896
vn 0.5680 0.4455 -0.6921
vn 0.6921 0.4455 -0.5680
vn 0.7896 0.4455 -0.4220
vn 0.8567 0.4455 -0.2599
vn 0.8910 0.4455 -0.0878
vn 0.8910 0.4455 0.0878
vn 0.8567 0.4455 0.2599
vn 0.7896 0.4455 0.4220
vn 0.6921 0.4455 0.5680
vn 0.5680 0.4455 0.6921
vn 0.4220 0.4455 0.7896
vn 0.2599 0.4455 0.8567
vn 0.0878 0.4455 0.8910
vn -0.0878 0.4455 0.8910
vn -0.2599 0.4455 0.8567
vn -0.4220 0.4455 0.7896
vn -0.5680 0.4455 0.6921
vn -0.6921 0.4455 0.5680
vn -0.7896 0.4455 0.4220
vn -0.8567 0.4455 0.2599
vn -0.8910 0.4455 0.0878
vn -0.8910 0.4455 -0.0878
vn -0.8567 0.4455 -0.2599
vn -0.7896 0.4455 -0.4220
vn -0.6921 0.4455 -0.5680
vn -0.5680 0.4455 -0.6921
vn -0.4220 0.4455 -0.7896
vn -0.0000 -1.0000 -0.0000
vn -0.2599 0.4455 -0.8567
vn -0.0878 0.4455 -0.8910
vn 0.0980 -0.0000 -0.9952
vn 0.2903 -0.0000 -0.9569
vn 0.4714 -0.0000 -0.8819
vn 0.6344 -0.0000 -0.7730
vn 0.7730 -0.0000 -0.6344
vn 0.8819 -0.0000 -0.4714
vn 0.9569 -0.0000 -0.2903
vn 0.9952 -0.0000 -0.0980
vn 0.9952 -0.0000 0.0980
vn 0.9569 -0.0000 0.2903
vn 0.8819 -0.0000 0.4714
vn 0.7730 -0.0000 0.6344
vn 0.6344 -0.0000 0.7730
vn 0.4714 -0.0000 0.8819
vn 0.2903 -0.0000 0.9569
vn 0.0980 -0.0000 0.9952
vn -0.0980 -0.0000 0.9952
vn -0.2903 -0.0000 0.9569
vn -0.4714 -0.0000 0.8819
vn -0.6344 -0.0000 0.7730
vn -0.7730 -0.0000 0.6344
vn -0.8819 -0.0000 0.4714
vn -0.9569 -0.0000 0.2903
vn -0.9952 -0.0000 0.0980
vn -0.9952 -0.0000 -0.0980
vn -0.9569 -0.0000 -0.2903
vn -0.8819 -0.0000 -0.4714
vn -0.7730 -0.0000 -0.6344
vn -0.6344 -0.0000 -0.7730
vn -0.4714 -0.0000 -0.8819
vn -0.0000 1.0000 -0.0000
vn -0.2903 -0.0000 -0.9569
vn -0.0980 -0.0000 -0.9952
vt 0.250000 0.490000
vt 0.250000 0.250000
vt 0.296822 0.485388
vt 0.341844 0.471731
vt 0.383337 0.449553
vt 0.419706 0.419706
vt 0.449553 0.383337
vt 0.471731 0.341844
vt 0.485388 0.296822
vt 0.490000 0.250000
vt 0.485388 0.203178
vt 0.471731 0.158156
vt 0.449553 0.116663
vt 0.419706 0.080294
vt 0.383337 0.050447
vt 0.341844 0.028269
vt 0.296822 0.014612
vt 0.250000 0.010000
vt 0.203178 0.014612
vt 0.158156 0.028269
vt 0.116663 0.050447
vt 0.080294 0.080294
vt 0.050447 0.116663
vt 0.028269 0.158156
vt 0.014612 0.203178
vt 0.010000 0.250000
vt 0.014612 0.296822
vt 0.028269 0.341844
vt 0.050447 0.383337
vt 0.080294 0.419706
vt 0.116663 0.449553
vt 0.158156 0.471731
vt 0.750000 0.490000
vt 0.796822 0.485388
vt 0.841844 0.471731
vt 0.883337 0.449553
vt 0.919706 0.419706
vt 0.949553 0.383337
vt 0.971731 0.341844
vt 0.985388 0.296822
vt 0.990000 0.250000
vt 0.985388 0.203178
vt 0.971731 0.158156
vt 0.949553 0.116663
vt 0.919706 0.080294
vt 0.883337 0.050447
vt 0.841844 0.028269
vt 0.796822 0.014612
vt 0.750000 0.010000
vt 0.703178 0.014612
vt 0.658156 0.028269
vt 0.616663 0.050447
vt 0.580294 0.080294
vt 0.550447 0.116663
vt 0.528269 0.158156
vt 0.514612 0.203178
vt 0.510000 0.250000
vt 0.514612 0.296822
vt 0.528269 0.341844
vt 0.550447 0.383337
vt 0.580294 0.419706
vt 0.616663 0.449553
vt 0.658156 0.471731
vt 0.703178 0.485388
vt 0.203178 0.485388
vt 1.000000 0.500000
vt 1.000000 1.000000
vt 0.968750 1.000000
vt 0.968750 0.500000
vt 0.937500 1.000000
vt 0.937500 0.500000
vt 0.906250 1.000000
vt 0.906250 0.500000
vt 0.875000 1.000000
vt 0.875000 0.500000
vt 0.843750 1.000000
vt 0.843750 0.500000
vt 0.812500 1.000000
vt 0.812500 0.500000
vt 0.781250 1.000000
vt 0.781250 0.500000
vt 0.750000 1.000000
vt 0.750000 0.500000
vt 0.718750 1.000000
vt 0.718750 0.500000
vt 0.687500 1.000000
vt 0.687500 0.500000
vt 0.656250 1.000000
vt 0.656250 0.500000
vt 0.625000 1.000000
vt 0.625000 0.500000
vt 0.593750 1.000000
vt 0.593750 0.500000
vt 0.562500 1.000000
vt 0.562500 0.500000
vt 0.531250 1.000000
vt 0.531250 0.500000
vt 0.500000 1.000000
vt 0.500000 0.500000
vt 0.468750 1.000000
vt 0.468750 0.500000
vt 0.437500 1.000000
vt 0.437500 0.500000
vt 0.406250 1.000000
vt 0.406250 0.500000
vt 0.375000 1.000000
vt 0.375000 0.500000
vt 0.343750 1.000000
vt 0.343750 0.500000
vt 0.312500 1.000000
vt 0.312500 0.500000
vt 0.281250 1.000000
vt 0.281250 0.500000
vt 0.250000 1.000000
vt 0.250000 0.500000
vt 0.218750 1.000000
vt 0.218750 0.500000
vt 0.187500 1.000000
vt 0.187500 0.500000
vt 0.156250 1.000000
vt 0.156250 0.500000
vt 0.125000 1.000000
vt 0.125000 0.500000
vt 0.093750 1.000000
vt 0.093750 0.500000
vt 0.062500 1.000000
vt 0.062500 0.500000
vt 0.031250 1.000000
vt 0.031250 0.500000
vt 0.000000 1.000000
vt 0.000000 0.500000
s 0
usemtl Material.001
f 1/1/1 33/2/1 2/3/1
f 2/3/2 33/2/2 3/4/2
f 3/4/3 33/2/3 4/5/3
f 4/5/4 33/2/4 5/6/4
f 5/6/5 33/2/5 6/7/5
f 6/7/6 33/2/6 7/8/6
f 7/8/7 33/2/7 8/9/7
f 8/9/8 33/2/8 9/10/8
f 9/10/9 33/2/9 10/11/9
f 10/11/10 33/2/10 11/12/10
f 11/12/11 33/2/11 12/13/11
f 12/13/12 33/2/12 13/14/12
f 13/14/13 33/2/13 14/15/13
f 14/15/14 33/2/14 15/16/14
f 15/16/15 33/2/15 16/17/15
f 16/17/16 33/2/16 17/18/16
f 17/18/17 33/2/17 18/19/17
f 18/19/18 33/2/18 19/20/18
f 19/20/19 33/2/19 20/21/19
f 20/21/20 33/2/20 21/22/20
f 21/22/21 33/2/21 22/23/21
f 22/23/22 33/2/22 23/24/22
f 23/24/23 33/2/23 24/25/23
f 24/25/24 33/2/24 25/26/24
f 25/26/25 33/2/25 26/27/25
f 26/27/26 33/2/26 27/28/26
f 27/28/27 33/2/27 28/29/27
f 28/29/28 33/2/28 29/30/28
f 29/30/29 33/2/29 30/31/29
f 30/31/30 33/2/30 31/32/30
f 1/33/31 2/34/31 3/35/31 4/36/31 5/37/31 6/38/31 7/39/31 8/40/31 9/41/31 10/42/31 11/43/31 12/44/31 13/45/31 14/46/31 15/47/31 16/48/31 17/49/31 18/50/31 19/51/31 20/52/31 21/53/31 22/54/31 23/55/31 24/56/31 25/57/31 26/58/31 27/59/31 28/60/31 29/61/31 30/62/31 31/63/31 32/64/31
f 31/32/32 33/2/32 32/65/32
f 32/65/33 33/2/33 1/1/33
f 34/66/34 35/67/34 37/68/34 36/69/34
f 36/69/35 37/68/35 39/70/35 38/71/35
f 38/71/36 39/70/36 41/72/36 40/73/36
f 40/73/37 41/72/37 43/74/37 42/75/37
f 42/75/38 43/74/38 45/76/38 44/77/38
f 44/77/39 45/76/39 47/78/39 46/79/39
f 46/79/40 47/78/40 49/80/40 48/81/40
f 48/81/41 49/80/41 51/82/41 50/83/41
f 50/83/42 51/82/42 53/84/42 52/85/42
f 52/85/43 53/84/43 55/86/43 54/87/43
f 54/87/44 55/86/44 57/88/44 56/89/44
f 56/89/45 57/88/45 59/90/45 58/91/45
f 58/91/46 59/90/46 61/92/46 60/93/46
f 60/93/47 61/92/47 63/94/47 62/95/47
f 62/95/48 63/94/48 65/96/48 64/97/48
f 64/97/49 65/96/49 67/98/49 66/99/49
f 66/99/50 67/98/50 69/100/50 68/101/50
f 68/101/51 69/100/51 71/102/51 70/103/51
f 70/103/52 71/102/52 73/104/52 72/105/52
f 72/105/53 73/104/53 75/106/53 74/107/53
f 74/107/54 75/106/54 77/108/54 76/109/54
f 76/109/55 77/108/55 79/110/55 78/111/55
f 78/111/56 79/110/56 81/112/56 80/113/56
f 80/113/57 81/112/57 83/114/57 82/115/57
f 82/115/58 83/114/58 85/116/58 84/117/58
f 84/117/59 85/116/59 87/118/59 86/119/59
f 86/119/60 87/118/60 89/120/60 88/121/60
f 88/121/61 89/120/61 91/122/61 90/123/61
f 90/123/62 91/122/62 93/124/62 92/125/62
f 92/125/63 93/124/63 95/126/63 94/127/63
f 37/3/64 35/1/64 97/65/64 95/32/64 93/31/64 91/30/64 89/29/64 87/28/64 85/27/64 83/26/64 81/25/64 79/24/64 77/23/64 75/22/64 73/21/64 71/20/64 69/19/64 67/18/64 65/17/64 63/16/64 61/15/64 59/14/64 57/13/64 55/12/64 53/11/64 51/10/64 49/9/64 47/8/64 45/7/64 43/6/64 41/5/64 39/4/64
f 94/127/65 95/126/65 97/128/65 96/129/65
f 96/129/66 97/128/66 35/130/66 34/131/66
f 34/33/31 36/34/31 38/35/31 40/36/31 42/37/31 44/38/31 46/39/31 48/40/31 50/41/31 52/42/31 54/43/31 56/44/31 58/45/31 60/46/31 62/47/31 64/48/31 66/49/31 68/50/31 70/51/31 72/52/31 74/53/31 76/54/31 78/55/31 80/56/31 82/57/31 84/58/31 86/59/31 88/60/31 90/61/31 92/62/31 94/63/31 96/64/31
o y_axio
v 3.659655 0.000000 -0.150000
v 3.659655 -0.029264 -0.147118
v 3.659655 -0.057403 -0.138582
v 3.659655 -0.083336 -0.124720
v 3.659655 -0.106066 -0.106066
v 3.659655 -0.124720 -0.083336
v 3.659655 -0.138582 -0.057403
v 3.659655 -0.147118 -0.029264
v 3.659655 -0.150000 0.000000
v 3.659655 -0.147118 0.029264
v 3.659655 -0.138582 0.057403
v 3.659655 -0.124720 0.083336
v 3.659655 -0.106066 0.106066
v 3.659655 -0.083336 0.124720
v 3.659655 -0.057403 0.138582
v 3.659655 -0.029264 0.147118
v 3.659655 0.000000 0.150000
v 3.659655 0.029264 0.147118
v 3.659655 0.057403 0.138582
v 3.659655 0.083336 0.124720
v 3.659655 0.106066 0.106066
v 3.659655 0.124720 0.083336
v 3.659655 0.138582 0.057403
v 3.659655 0.147118 0.029264
v 3.659655 0.150000 0.000000
v 3.659655 0.147118 -0.029264
v 3.659655 0.138582 -0.057403
v 3.659655 0.124720 -0.083336
v 3.659655 0.106066 -0.106066
v 3.659655 0.083336 -0.124720
v 3.659655 0.057403 -0.138582
v 3.659655 0.029264 -0.147118
v 3.959655 -0.000000 0.000000
v -3.838435 0.000000 -0.050000
v 3.760364 0.000000 -0.050000
v -3.838435 -0.009754 -0.049039
v 3.760364 -0.009755 -0.049039
v -3.838435 -0.019134 -0.046194
v 3.760364 -0.019134 -0.046194
v -3.838435 -0.027778 -0.041573
v 3.760364 -0.027779 -0.041573
v -3.838435 -0.035355 -0.035355
v 3.760364 -0.035355 -0.035355
v -3.838435 -0.041573 -0.027779
v 3.760364 -0.041573 -0.027779
v -3.838435 -0.046194 -0.019134
v 3.760364 -0.046194 -0.019134
v -3.838435 -0.049039 -0.009755
v 3.760364 -0.049039 -0.009755
v -3.838435 -0.050000 0.000000
v 3.760364 -0.050000 0.000000
v -3.838435 -0.049039 0.009755
v 3.760364 -0.049039 0.009755
v -3.838435 -0.046194 0.019134
v 3.760364 -0.046194 0.019134
v -3.838435 -0.041573 0.027779
v 3.760364 -0.041573 0.027779
v -3.838435 -0.035355 0.035355
v 3.760364 -0.035355 0.035355
v -3.838435 -0.027778 0.041573
v 3.760364 -0.027779 0.041573
v -3.838435 -0.019134 0.046194
v 3.760364 -0.019134 0.046194
v -3.838435 -0.009754 0.049039
v 3.760364 -0.009755 0.049039
v -3.838435 0.000000 0.050000
v 3.760364 0.000000 0.050000
v -3.838435 0.009755 0.049039
v 3.760364 0.009755 0.049039
v -3.838435 0.019135 0.046194
v 3.760364 0.019134 0.046194
v -3.838435 0.027779 0.041573
v 3.760364 0.027779 0.041573
v -3.838435 0.035356 0.035355
v 3.760364 0.035355 0.035355
v -3.838435 0.041574 0.027779
v 3.760364 0.041573 0.027779
v -3.838435 0.046194 0.019134
v 3.760364 0.046194 0.019134
v -3.838435 0.049040 0.009755
v 3.760364 0.049039 0.009755
v -3.838435 0.050000 0.000000
v 3.760364 0.050000 0.000000
v -3.838435 0.049040 -0.009755
v 3.760364 0.049039 -0.009755
v -3.838435 0.046194 -0.019134
v 3.760364 0.046194 -0.019134
v -3.838435 0.041574 -0.027779
v 3.760364 0.041573 -0.027779
v -3.838435 0.035356 -0.035355
v 3.760364 0.035355 -0.035355
v -3.838435 0.027779 -0.041573
v 3.760364 0.027779 -0.041573
v -3.838435 0.019135 -0.046194
v 3.760364 0.019134 -0.046194
v -3.838435 0.009755 -0.049039
v 3.760364 0.009755 -0.049039
vn 0.4455 -0.0878 -0.8910
vn 0.4455 -0.2599 -0.8567
vn 0.4455 -0.4220 -0.7896
vn 0.4455 -0.5680 -0.6921
vn 0.4455 -0.6921 -0.5680
vn 0.4455 -0.7896 -0.4220
vn 0.4455 -0.8567 -0.2599
vn 0.4455 -0.8910 -0.0878
vn 0.4455 -0.8910 0.0878
vn 0.4455 -0.8567 0.2599
vn 0.4455 -0.7896 0.4220
vn 0.4455 -0.6921 0.5680
vn 0.4455 -0.5680 0.6921
vn 0.4455 -0.4220 0.7896
vn 0.4455 -0.2599 0.8567
vn 0.4455 -0.0878 0.8910
vn 0.4455 0.0878 0.8910
vn 0.4455 0.2599 0.8567
vn 0.4455 0.4220 0.7896
vn 0.4455 0.5680 0.6921
vn 0.4455 0.6921 0.5680
vn 0.4455 0.7896 0.4220
vn 0.4455 0.8567 0.2599
vn 0.4455 0.8910 0.0878
vn 0.4455 0.8910 -0.0878
vn 0.4455 0.8567 -0.2599
vn 0.4455 0.7896 -0.4220
vn 0.4455 0.6921 -0.5680
vn 0.4455 0.5680 -0.6921
vn 0.4455 0.4220 -0.7896
vn -1.0000 -0.0000 -0.0000
vn 0.4455 0.2599 -0.8567
vn 0.4455 0.0878 -0.8910
vn -0.0000 -0.0980 -0.9952
vn -0.0000 -0.2903 -0.9569
vn -0.0000 -0.4714 -0.8819
vn -0.0000 -0.6344 -0.7730
vn -0.0000 -0.7730 -0.6344
vn -0.0000 -0.8819 -0.4714
vn -0.0000 -0.9569 -0.2903
vn -0.0000 -0.9952 -0.0980
vn -0.0000 -0.9952 0.0980
vn -0.0000 -0.9569 0.2903
vn -0.0000 -0.8819 0.4714
vn -0.0000 -0.7730 0.6344
vn -0.0000 -0.6344 0.7730
vn -0.0000 -0.4714 0.8819
vn -0.0000 -0.2903 0.9569
vn -0.0000 -0.0980 0.9952
vn -0.0000 0.0980 0.9952
vn -0.0000 0.2903 0.9569
vn -0.0000 0.4714 0.8819
vn -0.0000 0.6344 0.7730
vn -0.0000 0.7730 0.6344
vn -0.0000 0.8819 0.4714
vn -0.0000 0.9569 0.2903
vn -0.0000 0.9952 0.0980
vn -0.0000 0.9952 -0.0980
vn -0.0000 0.9569 -0.2903
vn -0.0000 0.8819 -0.4714
vn -0.0000 0.7730 -0.6344
vn -0.0000 0.6344 -0.7730
vn -0.0000 0.4714 -0.8819
vn 1.0000 -0.0000 -0.0000
vn -0.0000 0.2903 -0.9569
vn -0.0000 0.0980 -0.9952
vt 0.250000 0.490000
vt 0.250000 0.250000
vt 0.296822 0.485388
vt 0.341844 0.471731
vt 0.383337 0.449553
vt 0.419706 0.419706
vt 0.449553 0.383337
vt 0.471731 0.341844
vt 0.485388 0.296822
vt 0.490000 0.250000
vt 0.485388 0.203178
vt 0.471731 0.158156
vt 0.449553 0.116663
vt 0.419706 0.080294
vt 0.383337 0.050447
vt 0.341844 0.028269
vt 0.296822 0.014612
vt 0.250000 0.010000
vt 0.203178 0.014612
vt 0.158156 0.028269
vt 0.116663 0.050447
vt 0.080294 0.080294
vt 0.050447 0.116663
vt 0.028269 0.158156
vt 0.014612 0.203178
vt 0.010000 0.250000
vt 0.014612 0.296822
vt 0.028269 0.341844
vt 0.050447 0.383337
vt 0.080294 0.419706
vt 0.116663 0.449553
vt 0.158156 0.471731
vt 0.750000 0.490000
vt 0.796822 0.485388
vt 0.841844 0.471731
vt 0.883337 0.449553
vt 0.919706 0.419706
vt 0.949553 0.383337
vt 0.971731 0.341844
vt 0.985388 0.296822
vt 0.990000 0.250000
vt 0.985388 0.203178
vt 0.971731 0.158156
vt 0.949553 0.116663
vt 0.919706 0.080294
vt 0.883337 0.050447
vt 0.841844 0.028269
vt 0.796822 0.014612
vt 0.750000 0.010000
vt 0.703178 0.014612
vt 0.658156 0.028269
vt 0.616663 0.050447
vt 0.580294 0.080294
vt 0.550447 0.116663
vt 0.528269 0.158156
vt 0.514612 0.203178
vt 0.510000 0.250000
vt 0.514612 0.296822
vt 0.528269 0.341844
vt 0.550447 0.383337
vt 0.580294 0.419706
vt 0.616663 0.449553
vt 0.658156 0.471731
vt 0.703178 0.485388
vt 0.203178 0.485388
vt 1.000000 0.500000
vt 1.000000 1.000000
vt 0.968750 1.000000
vt 0.968750 0.500000
vt 0.937500 1.000000
vt 0.937500 0.500000
vt 0.906250 1.000000
vt 0.906250 0.500000
vt 0.875000 1.000000
vt 0.875000 0.500000
vt 0.843750 1.000000
vt 0.843750 0.500000
vt 0.812500 1.000000
vt 0.812500 0.500000
vt 0.781250 1.000000
vt 0.781250 0.500000
vt 0.750000 1.000000
vt 0.750000 0.500000
vt 0.718750 1.000000
vt 0.718750 0.500000
vt 0.687500 1.000000
vt 0.687500 0.500000
vt 0.656250 1.000000
vt 0.656250 0.500000
vt 0.625000 1.000000
vt 0.625000 0.500000
vt 0.593750 1.000000
vt 0.593750 0.500000
vt 0.562500 1.000000
vt 0.562500 0.500000
vt 0.531250 1.000000
vt 0.531250 0.500000
vt 0.500000 1.000000
vt 0.500000 0.500000
vt 0.468750 1.000000
vt 0.468750 0.500000
vt 0.437500 1.000000
vt 0.437500 0.500000
vt 0.406250 1.000000
vt 0.406250 0.500000
vt 0.375000 1.000000
vt 0.375000 0.500000
vt 0.343750 1.000000
vt 0.343750 0.500000
vt 0.312500 1.000000
vt 0.312500 0.500000
vt 0.281250 1.000000
vt 0.281250 0.500000
vt 0.250000 1.000000
vt 0.250000 0.500000
vt 0.218750 1.000000
vt 0.218750 0.500000
vt 0.187500 1.000000
vt 0.187500 0.500000
vt 0.156250 1.000000
vt 0.156250 0.500000
vt 0.125000 1.000000
vt 0.125000 0.500000
vt 0.093750 1.000000
vt 0.093750 0.500000
vt 0.062500 1.000000
vt 0.062500 0.500000
vt 0.031250 1.000000
vt 0.031250 0.500000
vt 0.000000 1.000000
vt 0.000000 0.500000
s 0
usemtl Material.004
f 98/132/67 130/133/67 99/134/67
f 99/134/68 130/133/68 100/135/68
f 100/135/69 130/133/69 101/136/69
f 101/136/70 130/133/70 102/137/70
f 102/137/71 130/133/71 103/138/71
f 103/138/72 130/133/72 104/139/72
f 104/139/73 130/133/73 105/140/73
f 105/140/74 130/133/74 106/141/74
f 106/141/75 130/133/75 107/142/75
f 107/142/76 130/133/76 108/143/76
f 108/143/77 130/133/77 109/144/77
f 109/144/78 130/133/78 110/145/78
f 110/145/79 130/133/79 111/146/79
f 111/146/80 130/133/80 112/147/80
f 112/147/81 130/133/81 113/148/81
f 113/148/82 130/133/82 114/149/82
f 114/149/83 130/133/83 115/150/83
f 115/150/84 130/133/84 116/151/84
f 116/151/85 130/133/85 117/152/85
f 117/152/86 130/133/86 118/153/86
f 118/153/87 130/133/87 119/154/87
f 119/154/88 130/133/88 120/155/88
f 120/155/89 130/133/89 121/156/89
f 121/156/90 130/133/90 122/157/90
f 122/157/91 130/133/91 123/158/91
f 123/158/92 130/133/92 124/159/92
f 124/159/93 130/133/93 125/160/93
f 125/160/94 130/133/94 126/161/94
f 126/161/95 130/133/95 127/162/95
f 127/162/96 130/133/96 128/163/96
f 98/164/97 99/165/97 100/166/97 101/167/97 102/168/97 103/169/97 104/170/97 105/171/97 106/172/97 107/173/97 108/174/97 109/175/97 110/176/97 111/177/97 112/178/97 113/179/97 114/180/97 115/181/97 116/182/97 117/183/97 118/184/97 119/185/97 120/186/97 121/187/97 122/188/97 123/189/97 124/190/97 125/191/97 126/192/97 127/193/97 128/194/97 129/195/97
f 128/163/98 130/133/98 129/196/98
f 129/196/99 130/133/99 98/132/99
f 131/197/100 132/198/100 134/199/100 133/200/100
f 133/200/101 134/199/101 136/201/101 135/202/101
f 135/202/102 136/201/102 138/203/102 137/204/102
f 137/204/103 138/203/103 140/205/103 139/206/103
f 139/206/104 140/205/104 142/207/104 141/208/104
f 141/208/105 142/207/105 144/209/105 143/210/105
f 143/210/106 144/209/106 146/211/106 145/212/106
f 145/212/107 146/211/107 148/213/107 147/214/107
f 147/214/108 148/213/108 150/215/108 149/216/108
f 149/216/109 150/215/109 152/217/109 151/218/109
f 151/218/110 152/217/110 154/219/110 153/220/110
f 153/220/111 154/219/111 156/221/111 155/222/111
f 155/222/112 156/221/112 158/223/112 157/224/112
f 157/224/113 158/223/113 160/225/113 159/226/113
f 159/226/114 160/225/114 162/227/114 161/228/114
f 161/228/115 162/227/115 164/229/115 163/230/115
f 163/230/116 164/229/116 166/231/116 165/232/116
f 165/232/117 166/231/117 168/233/117 167/234/117
f 167/234/118 168/233/118 170/235/118 169/236/118
f 169/236/119 170/235/119 172/237/119 171/238/119
f 171/238/120 172/237/120 174/239/120 173/240/120
f 173/240/121 174/239/121 176/241/121 175/242/121
f 175/242/122 176/241/122 178/243/122 177/244/122
f 177/244/123 178/243/123 180/245/123 179/246/123
f 179/246/124 180/245/124 182/247/124 181/248/124
f 181/248/125 182/247/125 184/249/125 183/250/125
f 183/250/126 184/249/126 186/251/126 185/252/126
f 185/252/127 186/251/127 188/253/127 187/254/127
f 187/254/128 188/253/128 190/255/128 189/256/128
f 189/256/129 190/255/129 192/257/129 191/258/129
f 134/134/130 132/132/130 194/196/130 192/163/130 190/162/130 188/161/130 186/160/130 184/159/130 182/158/130 180/157/130 178/156/130 176/155/130 174/154/130 172/153/130 170/152/130 168/151/130 166/150/130 164/149/130 162/148/130 160/147/130 158/146/130 156/145/130 154/144/130 152/143/130 150/142/130 148/141/130 146/140/130 144/139/130 142/138/130 140/137/130 138/136/130 136/135/130
f 191/258/131 192/257/131 194/259/131 193/260/131
f 193/260/132 194/259/132 132/261/132 131/262/132
f 131/164/97 133/165/97 135/166/97 137/167/97 139/168/97 141/169/97 143/170/97 145/171/97 147/172/97 149/173/97 151/174/97 153/175/97 155/176/97 157/177/97 159/178/97 161/179/97 163/180/97 165/181/97 167/182/97 169/183/97 171/184/97 173/185/97 175/186/97 177/187/97 179/188/97 181/189/97 183/190/97 185/191/97 187/192/97 189/193/97 191/194/97 193/195/97
o x_axio
v -0.049637 0.144945 -3.456991
v -0.078900 0.142063 -3.456991
v -0.107039 0.133527 -3.456991
v -0.132972 0.119666 -3.456991
v -0.155703 0.101011 -3.456991
v -0.174357 0.078281 -3.456991
v -0.188218 0.052347 -3.456991
v -0.196754 0.024209 -3.456991
v -0.199637 -0.005055 -3.456991
v -0.196754 -0.034319 -3.456991
v -0.188218 -0.062457 -3.456991
v -0.174357 -0.088391 -3.456991
v -0.155703 -0.111121 -3.456991
v -0.132972 -0.129776 -3.456991
v -0.107039 -0.143637 -3.456991
v -0.078900 -0.152173 -3.456991
v -0.049637 -0.155055 -3.456991
v -0.020373 -0.152173 -3.456991
v 0.007766 -0.143637 -3.456991
v 0.033699 -0.129776 -3.456991
v 0.056429 -0.111121 -3.456991
v 0.075084 -0.088391 -3.456991
v 0.088945 -0.062457 -3.456991
v 0.097481 -0.034319 -3.456991
v 0.100363 -0.005055 -3.456991
v 0.097481 0.024209 -3.456991
v 0.088945 0.052347 -3.456991
v 0.075084 0.078281 -3.456991
v 0.056429 0.101011 -3.456991
v 0.033699 0.119666 -3.456991
v 0.007766 0.133527 -3.456991
v -0.020373 0.142063 -3.456991
v -0.049637 -0.005055 -3.756991
v -0.049637 0.044945 4.041100
v -0.049637 0.044945 -3.557700
v -0.059392 0.043985 4.041100
v -0.059391 0.043984 -3.557700
v -0.068771 0.041139 4.041100
v -0.068771 0.041139 -3.557700
v -0.077416 0.036519 4.041100
v -0.077415 0.036519 -3.557700
v -0.084993 0.030301 4.041100
v -0.084992 0.030300 -3.557700
v -0.091211 0.022724 4.041100
v -0.091210 0.022724 -3.557700
v -0.095831 0.014080 4.041100
v -0.095831 0.014079 -3.557700
v -0.098676 0.004700 4.041100
v -0.098676 0.004699 -3.557700
v -0.099637 -0.005055 4.041100
v -0.099637 -0.005055 -3.557700
v -0.098676 -0.014809 4.041100
v -0.098676 -0.014810 -3.557700
v -0.095831 -0.024189 4.041100
v -0.095831 -0.024189 -3.557700
v -0.091211 -0.032833 4.041100
v -0.091210 -0.032834 -3.557700
v -0.084993 -0.040410 4.041100
v -0.084992 -0.040410 -3.557700
v -0.077416 -0.046628 4.041100
v -0.077415 -0.046629 -3.557700
v -0.068771 -0.051249 4.041100
v -0.068771 -0.051249 -3.557700
v -0.059392 -0.054094 4.041100
v -0.059391 -0.054094 -3.557700
v -0.049637 -0.055055 4.041100
v -0.049637 -0.055055 -3.557700
v -0.039883 -0.054094 4.041100
v -0.039882 -0.054094 -3.557700
v -0.030503 -0.051249 4.041100
v -0.030502 -0.051249 -3.557700
v -0.021859 -0.046628 4.041100
v -0.021858 -0.046629 -3.557700
v -0.014282 -0.040410 4.041100
v -0.014281 -0.040410 -3.557700
v -0.008064 -0.032833 4.041100
v -0.008063 -0.032834 -3.557700
v -0.003443 -0.024189 4.041100
v -0.003443 -0.024189 -3.557700
v -0.000598 -0.014809 4.041100
v -0.000597 -0.014810 -3.557700
v 0.000363 -0.005055 4.041100
v 0.000363 -0.005055 -3.557700
v -0.000598 0.004700 4.041100
v -0.000597 0.004699 -3.557700
v -0.003443 0.014080 4.041100
v -0.003443 0.014079 -3.557700
v -0.008064 0.022724 4.041100
v -0.008063 0.022724 -3.557700
v -0.014282 0.030301 4.041100
v -0.014281 0.030300 -3.557700
v -0.021859 0.036519 4.041100
v -0.021858 0.036519 -3.557700
v -0.030503 0.041139 4.041100
v -0.030502 0.041139 -3.557700
v -0.039883 0.043985 4.041100
v -0.039882 0.043984 -3.557700
vn -0.0878 0.8910 -0.4455
vn -0.2599 0.8567 -0.4455
vn -0.4220 0.7896 -0.4455
vn -0.5680 0.6921 -0.4455
vn -0.6921 0.5680 -0.4455
vn -0.7896 0.4220 -0.4455
vn -0.8567 0.2599 -0.4455
vn -0.8910 0.0878 -0.4455
vn -0.8910 -0.0878 -0.4455
vn -0.8567 -0.2599 -0.4455
vn -0.7896 -0.4220 -0.4455
vn -0.6921 -0.5680 -0.4455
vn -0.5680 -0.6921 -0.4455
vn -0.4220 -0.7896 -0.4455
vn -0.2599 -0.8567 -0.4455
vn -0.0878 -0.8910 -0.4455
vn 0.0878 -0.8910 -0.4455
vn 0.2599 -0.8567 -0.4455
vn 0.4220 -0.7896 -0.4455
vn 0.5680 -0.6921 -0.4455
vn 0.6921 -0.5680 -0.4455
vn 0.7896 -0.4220 -0.4455
vn 0.8567 -0.2599 -0.4455
vn 0.8910 -0.0878 -0.4455
vn 0.8910 0.0878 -0.4455
vn 0.8567 0.2599 -0.4455
vn 0.7896 0.4220 -0.4455
vn 0.6921 0.5680 -0.4455
vn 0.5680 0.6921 -0.4455
vn 0.4220 0.7896 -0.4455
vn -0.0000 -0.0000 1.0000
vn 0.2599 0.8567 -0.4455
vn 0.0878 0.8910 -0.4455
vn -0.0980 0.9952 -0.0000
vn -0.2903 0.9569 -0.0000
vn -0.4714 0.8819 -0.0000
vn -0.6344 0.7730 -0.0000
vn -0.7730 0.6344 -0.0000
vn -0.8819 0.4714 -0.0000
vn -0.9569 0.2903 -0.0000
vn -0.9952 0.0980 -0.0000
vn -0.9952 -0.0980 -0.0000
vn -0.9569 -0.2903 -0.0000
vn -0.8819 -0.4714 -0.0000
vn -0.7730 -0.6344 -0.0000
vn -0.6344 -0.7730 -0.0000
vn -0.4714 -0.8819 -0.0000
vn -0.2903 -0.9569 -0.0000
vn -0.0980 -0.9952 -0.0000
vn 0.0980 -0.9952 -0.0000
vn 0.2903 -0.9569 -0.0000
vn 0.4714 -0.8819 -0.0000
vn 0.6344 -0.7730 -0.0000
vn 0.7730 -0.6344 -0.0000
vn 0.8819 -0.4714 -0.0000
vn 0.9569 -0.2903 -0.0000
vn 0.9952 -0.0980 -0.0000
vn 0.9952 0.0980 -0.0000
vn 0.9569 0.2903 -0.0000
vn 0.8819 0.4714 -0.0000
vn 0.7730 0.6344 -0.0000
vn 0.6344 0.7730 -0.0000
vn 0.4714 0.8819 -0.0000
vn -0.0000 -0.0000 -1.0000
vn 0.2903 0.9569 -0.0000
vn 0.0980 0.9952 -0.0000
vt 0.250000 0.490000
vt 0.250000 0.250000
vt 0.296822 0.485388
vt 0.341844 0.471731
vt 0.383337 0.449553
vt 0.419706 0.419706
vt 0.449553 0.383337
vt 0.471731 0.341844
vt 0.485388 0.296822
vt 0.490000 0.250000
vt 0.485388 0.203178
vt 0.471731 0.158156
vt 0.449553 0.116663
vt 0.419706 0.080294
vt 0.383337 0.050447
vt 0.341844 0.028269
vt 0.296822 0.014612
vt 0.250000 0.010000
vt 0.203178 0.014612
vt 0.158156 0.028269
vt 0.116663 0.050447
vt 0.080294 0.080294
vt 0.050447 0.116663
vt 0.028269 0.158156
vt 0.014612 0.203178
vt 0.010000 0.250000
vt 0.014612 0.296822
vt 0.028269 0.341844
vt 0.050447 0.383337
vt 0.080294 0.419706
vt 0.116663 0.449553
vt 0.158156 0.471731
vt 0.750000 0.490000
vt 0.796822 0.485388
vt 0.841844 0.471731
vt 0.883337 0.449553
vt 0.919706 0.419706
vt 0.949553 0.383337
vt 0.971731 0.341844
vt 0.985388 0.296822
vt 0.990000 0.250000
vt 0.985388 0.203178
vt 0.971731 0.158156
vt 0.949553 0.116663
vt 0.919706 0.080294
vt 0.883337 0.050447
vt 0.841844 0.028269
vt 0.796822 0.014612
vt 0.750000 0.010000
vt 0.703178 0.014612
vt 0.658156 0.028269
vt 0.616663 0.050447
vt 0.580294 0.080294
vt 0.550447 0.116663
vt 0.528269 0.158156
vt 0.514612 0.203178
vt 0.510000 0.250000
vt 0.514612 0.296822
vt 0.528269 0.341844
vt 0.550447 0.383337
vt 0.580294 0.419706
vt 0.616663 0.449553
vt 0.658156 0.471731
vt 0.703178 0.485388
vt 0.203178 0.485388
vt 1.000000 0.500000
vt 1.000000 1.000000
vt 0.968750 1.000000
vt 0.968750 0.500000
vt 0.937500 1.000000
vt 0.937500 0.500000
vt 0.906250 1.000000
vt 0.906250 0.500000
vt 0.875000 1.000000
vt 0.875000 0.500000
vt 0.843750 1.000000
vt 0.843750 0.500000
vt 0.812500 1.000000
vt 0.812500 0.500000
vt 0.781250 1.000000
vt 0.781250 0.500000
vt 0.750000 1.000000
vt 0.750000 0.500000
vt 0.718750 1.000000
vt 0.718750 0.500000
vt 0.687500 1.000000
vt 0.687500 0.500000
vt 0.656250 1.000000
vt 0.656250 0.500000
vt 0.625000 1.000000
vt 0.625000 0.500000
vt 0.593750 1.000000
vt 0.593750 0.500000
vt 0.562500 1.000000
vt 0.562500 0.500000
vt 0.531250 1.000000
vt 0.531250 0.500000
vt 0.500000 1.000000
vt 0.500000 0.500000
vt 0.468750 1.000000
vt 0.468750 0.500000
vt 0.437500 1.000000
vt 0.437500 0.500000
vt 0.406250 1.000000
vt 0.406250 0.500000
vt 0.375000 1.000000
vt 0.375000 0.500000
vt 0.343750 1.000000
vt 0.343750 0.500000
vt 0.312500 1.000000
vt 0.312500 0.500000
vt 0.281250 1.000000
vt 0.281250 0.500000
vt 0.250000 1.000000
vt 0.250000 0.500000
vt 0.218750 1.000000
vt 0.218750 0.500000
vt 0.187500 1.000000
vt 0.187500 0.500000
vt 0.156250 1.000000
vt 0.156250 0.500000
vt 0.125000 1.000000
vt 0.125000 0.500000
vt 0.093750 1.000000
vt 0.093750 0.500000
vt 0.062500 1.000000
vt 0.062500 0.500000
vt 0.031250 1.000000
vt 0.031250 0.500000
vt 0.000000 1.000000
vt 0.000000 0.500000
s 0
usemtl Material.003
f 195/263/133 227/264/133 196/265/133
f 196/265/134 227/264/134 197/266/134
f 197/266/135 227/264/135 198/267/135
f 198/267/136 227/264/136 199/268/136
f 199/268/137 227/264/137 200/269/137
f 200/269/138 227/264/138 201/270/138
f 201/270/139 227/264/139 202/271/139
f 202/271/140 227/264/140 203/272/140
f 203/272/141 227/264/141 204/273/141
f 204/273/142 227/264/142 205/274/142
f 205/274/143 227/264/143 206/275/143
f 206/275/144 227/264/144 207/276/144
f 207/276/145 227/264/145 208/277/145
f 208/277/146 227/264/146 209/278/146
f 209/278/147 227/264/147 210/279/147
f 210/279/148 227/264/148 211/280/148
f 211/280/149 227/264/149 212/281/149
f 212/281/150 227/264/150 213/282/150
f 213/282/151 227/264/151 214/283/151
f 214/283/152 227/264/152 215/284/152
f 215/284/153 227/264/153 216/285/153
f 216/285/154 227/264/154 217/286/154
f 217/286/155 227/264/155 218/287/155
f 218/287/156 227/264/156 219/288/156
f 219/288/157 227/264/157 220/289/157
f 220/289/158 227/264/158 221/290/158
f 221/290/159 227/264/159 222/291/159
f 222/291/160 227/264/160 223/292/160
f 223/292/161 227/264/161 224/293/161
f 224/293/162 227/264/162 225/294/162
f 195/295/163 196/296/163 197/297/163 198/298/163 199/299/163 200/300/163 201/301/163 202/302/163 203/303/163 204/304/163 205/305/163 206/306/163 207/307/163 208/308/163 209/309/163 210/310/163 211/311/163 212/312/163 213/313/163 214/314/163 215/315/163 216/316/163 217/317/163 218/318/163 219/319/163 220/320/163 221/321/163 222/322/163 223/323/163 224/324/163 225/325/163 226/326/163
f 225/294/164 227/264/164 226/327/164
f 226/327/165 227/264/165 195/263/165
f 228/328/166 229/329/166 231/330/166 230/331/166
f 230/331/167 231/330/167 233/332/167 232/333/167
f 232/333/168 233/332/168 235/334/168 234/335/168
f 234/335/169 235/334/169 237/336/169 236/337/169
f 236/337/170 237/336/170 239/338/170 238/339/170
f 238/339/171 239/338/171 241/340/171 240/341/171
f 240/341/172 241/340/172 243/342/172 242/343/172
f 242/343/173 243/342/173 245/344/173 244/345/173
f 244/345/174 245/344/174 247/346/174 246/347/174
f 246/347/175 247/346/175 249/348/175 248/349/175
f 248/349/176 249/348/176 251/350/176 250/351/176
f 250/351/177 251/350/177 253/352/177 252/353/177
f 252/353/178 253/352/178 255/354/178 254/355/178
f 254/355/179 255/354/179 257/356/179 256/357/179
f 256/357/180 257/356/180 259/358/180 258/359/180
f 258/359/181 259/358/181 261/360/181 260/361/181
f 260/361/182 261/360/182 263/362/182 262/363/182
f 262/363/183 263/362/183 265/364/183 264/365/183
f 264/365/184 265/364/184 267/366/184 266/367/184
f 266/367/185 267/366/185 269/368/185 268/369/185
f 268/369/186 269/368/186 271/370/186 270/371/186
f 270/371/187 271/370/187 273/372/187 272/373/187
f 272/373/188 273/372/188 275/374/188 274/375/188
f 274/375/189 275/374/189 277/376/189 276/377/189
f 276/377/190 277/376/190 279/378/190 278/379/190
f 278/379/191 279/378/191 281/380/191 280/381/191
f 280/381/192 281/380/192 283/382/192 282/383/192
f 282/383/193 283/382/193 285/384/193 284/385/193
f 284/385/194 285/384/194 287/386/194 286/387/194
f 286/387/195 287/386/195 289/388/195 288/389/195
f 231/265/196 229/263/196 291/327/196 289/294/196 287/293/196 285/292/196 283/291/196 281/290/196 279/289/196 277/288/196 275/287/196 273/286/196 271/285/196 269/284/196 267/283/196 265/282/196 263/281/196 261/280/196 259/279/196 257/278/196 255/277/196 253/276/196 251/275/196 249/274/196 247/273/196 245/272/196 243/271/196 241/270/196 239/269/196 237/268/196 235/267/196 233/266/196
f 288/389/197 289/388/197 291/390/197 290/391/197
f 290/391/198 291/390/198 229/392/198 228/393/198
f 228/295/163 230/296/163 232/297/163 234/298/163 236/299/163 238/300/163 240/301/163 242/302/163 244/303/163 246/304/163 248/305/163 250/306/163 252/307/163 254/308/163 256/309/163 258/310/163 260/311/163 262/312/163 264/313/163 266/314/163 268/315/163 270/316/163 272/317/163 274/318/163 276/319/163 278/320/163 280/321/163 282/322/163 284/323/163 286/324/163 288/325/163 290/326/163
o 
v 0.000000 0.000000 0.000000
